<svg width="2426" height="636" viewBox="0 0 2426 636" fill="none" xmlns="http://www.w3.org/2000/svg">
<path d="M749.86 303.54C749.86 220.69 813.18 168.7 890.96 168.7C949.19 168.7 984.37 199.58 1002.35 232.02L946.06 261.34C936.29 244.14 916.36 228.12 890.96 228.12C848.35 228.12 818.26 260.56 818.26 303.55C818.26 346.16 848.35 378.99 890.96 378.99C910.11 378.99 929.65 371.17 939.03 363.35V343.02H880.41V284.01H1006.26V387.58C978.51 418.46 940.21 438.39 890.96 438.39C813.18 438.38 749.86 386.4 749.86 303.54Z" fill="#0D0D1E"/>
<path d="M1155.51 433.69V414.93C1143.78 429 1121.11 438.38 1096.88 438.38C1067.96 438.38 1032.01 418.45 1032.01 376.24C1032.01 330.52 1067.96 315.27 1096.88 315.27C1121.89 315.27 1144.18 323.48 1155.51 337.54V318.78C1155.51 302.37 1141.44 291.04 1117.2 291.04C1098.45 291.04 1079.68 298.47 1064.44 311.37L1042.16 269.54C1066.39 248.83 1098.83 240.23 1127.75 240.23C1173.09 240.23 1215.69 257.03 1215.69 315.66V433.7H1155.51V433.69ZM1155.51 385.23V368.43C1149.26 359.44 1135.18 355.14 1121.89 355.14C1106.26 355.14 1091.8 362.18 1091.8 377.03C1091.8 391.89 1106.26 398.92 1121.89 398.92C1135.18 398.91 1149.26 394.22 1155.51 385.23Z" fill="#0D0D1E"/>
<path d="M1497.45 433.69V318.78C1497.45 304.32 1490.42 293.38 1472.44 293.38C1456.02 293.38 1444.3 303.93 1438.44 311.75V433.69H1378.26V318.78C1378.26 304.32 1371.61 293.38 1353.63 293.38C1337.21 293.38 1325.89 303.93 1319.63 311.75V433.69H1259.45V244.92H1319.63V267.98C1327.84 257.04 1352.07 240.24 1381.77 240.24C1409.13 240.24 1427.5 251.57 1435.32 273.85C1446.26 257.43 1470.89 240.24 1500.59 240.24C1535.38 240.24 1557.26 258.21 1557.26 296.91V433.7H1497.45V433.69Z" fill="#0D0D1E"/>
<path d="M1589.25 339.11C1589.25 284.39 1630.29 240.23 1689.3 240.23C1745.19 240.23 1785.83 281.27 1785.83 345.36V359.05H1651.39C1655.69 375.85 1671.32 389.92 1698.68 389.92C1711.97 389.92 1733.86 384.06 1744.8 373.9L1770.99 413.37C1752.23 430.17 1720.96 438.38 1692.03 438.38C1633.8 438.38 1589.25 400.47 1589.25 339.11ZM1689.3 288.69C1663.11 288.69 1652.95 304.32 1650.61 318H1728.38C1726.81 304.72 1717.05 288.69 1689.3 288.69Z" fill="#0D0D1E"/>
<path d="M1815.49 433.69V173H1875.67V267.19C1890.53 248.44 1910.85 240.23 1931.56 240.23C1978.85 240.23 2014.81 277.36 2014.81 339.11C2014.81 403.21 1978.07 438.38 1931.56 438.38C1910.45 438.38 1891.3 429.78 1875.67 411.8V433.69H1815.49ZM1911.64 385.23C1935.48 385.23 1953.46 367.64 1953.46 339.11C1953.46 310.97 1935.48 293.39 1911.64 293.39C1898.74 293.39 1883.11 300.42 1875.68 310.59V368.43C1883.11 378.58 1898.74 385.23 1911.64 385.23Z" fill="#0D0D1E"/>
<path d="M2157.83 433.69V414.93C2146.1 429 2123.43 438.38 2099.2 438.38C2070.28 438.38 2034.33 418.45 2034.33 376.24C2034.33 330.52 2070.28 315.27 2099.2 315.27C2124.21 315.27 2146.5 323.48 2157.83 337.54V318.78C2157.83 302.37 2143.76 291.04 2119.52 291.04C2100.77 291.04 2082 298.47 2066.76 311.37L2044.48 269.54C2068.71 248.83 2101.15 240.23 2130.07 240.23C2175.41 240.23 2218.01 257.03 2218.01 315.66V433.7H2157.83V433.69ZM2157.83 385.23V368.43C2151.58 359.44 2137.5 355.14 2124.21 355.14C2108.58 355.14 2094.12 362.18 2094.12 377.03C2094.12 391.89 2108.58 398.92 2124.21 398.92C2137.51 398.91 2151.58 394.22 2157.83 385.23Z" fill="#0D0D1E"/>
<path d="M2261.75 433.69V173H2321.93V433.69H2261.75Z" fill="#0D0D1E"/>
<path d="M2365.69 433.69V173H2425.87V433.69H2365.69Z" fill="#0D0D1E"/>
<path d="M525.29 469.77C564.88 433 592.38 388.14 607.79 340.12C613.72 262.03 588.44 181.78 531.07 120C476.2 60.93 398.48 27.05 317.81 27.05C244.18 27.05 173.89 54.66 119.9 104.8C52.9601 166.97 21.9901 253.54 27.8301 338.28C40.9501 380.05 63.2901 419.64 95.0601 453.86C209.48 577.06 402.1 584.18 525.29 469.77Z" fill="#FFCF48"/>
<path d="M317.95 608.94C391.58 608.94 461.87 581.33 515.86 531.19C571.64 479.39 602.44 410.64 607.8 340.13C592.38 388.15 564.88 433.01 525.3 469.78C402.1 584.18 209.49 577.06 95.0801 453.87C63.3101 419.65 40.9701 380.06 27.8501 338.29C32.2701 402.36 57.7101 465.37 104.71 515.99C159.56 575.05 237.28 608.94 317.95 608.94Z" fill="#DD9F17"/>
<path d="M297.36 376.58H156.22L178.11 305.33L156.22 234.09H297.36V376.58Z" fill="#A5452F"/>
<path d="M226.79 251.54L297.36 234.09V271.5L226.79 251.54Z" fill="#3D2B28"/>
<path d="M226.79 397.46H439.28L476.88 251.54H226.79V397.46Z" fill="#E7633F"/>
<path d="M550.83 101.66C490.88 37.11 405.95 0.0899658 317.81 0.0899658C237.35 0.0899658 160.54 30.26 101.55 85.04C-26.8902 204.32 -34.3402 405.87 84.9298 534.33C144.88 598.88 229.81 635.9 317.95 635.9C334.69 635.9 351.27 634.59 367.56 632.03C377.76 630.43 387.86 628.33 397.81 625.76C448.34 612.67 495.17 587.2 534.21 550.95C662.65 431.66 670.11 230.11 550.83 101.66ZM515.86 531.18C483.92 560.84 446.28 582.62 405.62 595.46C393.53 599.28 381.17 602.31 368.61 604.52C352.02 607.44 335.07 608.93 317.96 608.93C237.29 608.93 159.56 575.05 104.7 515.97C57.6999 465.36 32.2598 402.34 27.8398 338.27C21.9998 253.53 52.9698 166.96 119.91 104.79C173.9 54.65 244.19 27.04 317.82 27.04C398.49 27.04 476.22 60.92 531.08 119.99C588.45 181.77 613.74 262.02 607.8 340.11C602.43 410.63 571.64 479.38 515.86 531.18Z" fill="#E6E6E6"/>
<path d="M496.33 243.32L405.62 595.46C393.53 599.28 381.17 602.31 368.61 604.52L463.81 234.94C466.12 225.96 475.28 220.55 484.26 222.87C493.23 225.18 498.64 234.34 496.33 243.32Z" fill="#0D0D1E"/>
</svg>
